<svg xmlns="http://www.w3.org/2000/svg" viewBox="0 0 1094.08 230.98"><defs><style>.cls-1{fill:#ed1c24;}.cls-2{fill:#c4a665;}.cls-3{fill:#231f20;}</style></defs><title>logo-st-olav</title><g id="Layer_1" data-name="Layer 1"><path class="cls-1" d="M198,2.33,198,2H2.61l0,.35c-3.61,36-.74,70.16,8.54,101.56a228.15,228.15,0,0,0,34.23,69.58c26,35.84,54.41,55,54.68,55.16l.2.13.19-.13c.28-.15,28.67-19.31,54.73-55.15a228.17,228.17,0,0,0,34.28-69.58C198.72,72.49,201.59,38.31,198,2.33"/><path class="cls-2" d="M183.23,122.06a228.86,228.86,0,0,1-39.07,65.48L1.59,45.5s124.1,96.32,134,102.52c.62-.2-5.36-9.51-7.85-14-5.57-10.13-13.26-9-21.8-16.45C97,111.09,95.4,94,81.07,87.71c-15.9-7-19.64-18.23-25.63-30.2-5.79-9.93-19.73-11.2-24-21.2-4.73-11.07-6.61-19.17-18.61-24.12C5.17,9.08,4,8.47,3,2.35,3,2.35,5,6,7.25,7.09c6.06,3,13.29,1.41,18.56,5.1,0,0,6.26,4.82,9.76,10.89,9,15.68,13,12.27,24.47,18.18,13.21,6.19,11.65,22.56,24.05,28.11,14.76,5.34,23.73,12.68,29.62,25.16,4.46,9.44,10.39,10.6,15.55,12.41,6.61,2.68,17.7,12,17.7,12C145.08,115,70.56,21.76,55.27,2.34Z"/></g><g id="Layer_5" data-name="Layer 5"><path class="cls-3" d="M294.7,89.59s13.07,9.59,29.28,9.59c12.08,0,16.88-4.79,16.88-11.08,0-6.45-4.3-9.76-21.51-14.56-22.5-6.29-34.25-14.23-34.25-30.11C285.1,25.72,298.34,14,323.82,14c26.63,0,37.55,10.25,37.55,10.25L350.62,40.61a46.71,46.71,0,0,0-26.8-8.27c-10.92,0-16.22,3.81-16.22,9.93,0,5.95,5.13,8.6,20.68,12.9,24.33,6.46,35.41,15.06,35.41,31.11,0,17.37-12.08,31.27-39.21,31.27-27.3,0-40.7-12.74-40.7-12.74Z"/><path class="cls-3" d="M374.44,16.13h84.71V33.66H426.89V115.4h-20V33.66H374.44Z"/><path class="cls-3" d="M471.73,93.56a11.58,11.58,0,1,1-11.58,11.58A11.51,11.51,0,0,1,471.73,93.56Z"/><path class="cls-3" d="M518.06,65.76c0-28.62,20-51.78,52.45-51.78,32.59,0,52.61,23.16,52.61,51.78s-20,51.79-52.61,51.79C538.08,117.55,518.06,94.39,518.06,65.76Zm84.55,0c0-18.86-13.4-32.59-32.1-32.59-18.53,0-31.77,13.73-31.77,32.59s13.24,32.6,31.77,32.6C589.21,98.36,602.61,84.62,602.61,65.76Z"/><path class="cls-3" d="M644.13,115.4V16.13h20V97.86h53V115.4Z"/><path class="cls-3" d="M772.69,16.13h3.47l51.12,99.27H804.62l-6.45-13.57H750.68l-6.29,13.57H721.73ZM775,52.36h-1.32L758.62,84.79l-1.16,2.15h33.76l-1.16-2.15Z"/><path class="cls-3" d="M867.82,79.5h1.65l8.11-18.87,21.18-44.5h22.67L870.3,115.4h-3.64L815.87,16.13h22.5l21.34,44.5Z"/><path class="cls-3" d="M317.79,171.86l9.72-20.09h3.89l-23.32,48.6h-1l-23.32-48.6h4l9.8,20.09,9.8,21.54h.56Z"/><path class="cls-3" d="M343.23,200.37h-3.56v-48.6h3.56Z"/><path class="cls-3" d="M374,200.37H358.3v-48.6H374c15.06,0,26,9.08,26,24.3S389.07,200.37,374,200.37Zm-12.15-45.28v42h12c12.71,0,22.51-7.86,22.51-21s-9.88-21-22.51-21Z"/><path class="cls-3" d="M442.37,178H415.08v19h31v3.32H411.51v-48.6H446.1v3.32h-31V174.7h27.29Z"/><path class="cls-3" d="M457,151.77h18.79c12.07,0,19.12,5.43,19.12,16,0,8.5-5,13.53-12.56,15.15v.24l13.53,16.28v1H492l-14.09-16.93H460.52v16.93H457Zm18.79,3.32H460.52v25h16.2c8.26,0,14.49-3.72,14.49-12.31C491.21,159,485.06,155.09,475.74,155.09Z"/><path class="cls-3" d="M538,178H510.74v19h31v3.32H507.17v-48.6h34.59v3.32h-31V174.7H538Z"/><path class="cls-3" d="M591.81,178H571.65V174.7h23.73v2.59c0,15-8.51,24.21-22.27,24.21-15.23,0-25-11-25-25.27,0-14.49,9.88-25.51,25.11-25.51,12.15,0,17.9,6.48,17.9,6.48l-2.11,2.67s-5.43-5.75-15.79-5.75c-13.61,0-21.55,10.13-21.55,22.11,0,11.75,7.78,21.87,21.39,21.87,11.17,0,18.7-7.37,18.7-19.35Z"/><path class="cls-3" d="M621.22,152.18a7,7,0,1,1,1.38,0l23.24,48.19h-4.05l-4.94-10h-29.8l-4.95,10h-4Zm1,6.88h-.57l-12.39,26.81-.56,1h26.48l-.49-1Zm-.32-18.22a4.14,4.14,0,0,0-4.38,4.45,4.42,4.42,0,0,0,8.83,0A4.16,4.16,0,0,0,621.87,140.84Z"/><path class="cls-3" d="M684.88,178H657.59v19h31v3.32H654v-48.6h34.58v3.32h-31V174.7h27.29Z"/><path class="cls-3" d="M740.77,200.37h-1.21L703,159.55v40.82h-3.57v-48.6h1.22l36.53,40.66V151.77h3.56Z"/><path class="cls-3" d="M771.47,200.37H755.76v-48.6h15.71c15.07,0,26,9.08,26,24.3S786.54,200.37,771.47,200.37Zm-12.15-45.28v42h12c12.72,0,22.52-7.86,22.52-21s-9.88-21-22.52-21Z"/><path class="cls-3" d="M839.83,178H812.54v19h31v3.32H809v-48.6h34.58v3.32h-31V174.7h27.29Z"/><path class="cls-3" d="M870.7,193.24s5.26,4.86,15.06,4.86c10.13,0,14.58-4,14.58-9.88,0-6.15-5.43-8.58-14.58-11.18-10-2.91-16.93-5.75-16.93-13.6,0-8.1,7-12.72,17.42-12.72,11.66,0,16.6,4.46,16.6,4.46l-1.94,3s-4.86-4-14.66-4c-7.54,0-13.77,3.16-13.77,9.24,0,5.58,5.43,7.69,14.5,10.28,10.53,2.92,17,6.4,17,14.58,0,7.53-5.43,13.2-18.23,13.2-11.42,0-17.09-5.42-17.09-5.42Z"/><path class="cls-3" d="M918.65,180.77l29.8-29h4.14v.73l-19.85,19.36,19.85,27.78v.73H948.7l-18.55-26-11.5,11.26v14.74h-3.57v-48.6h3.57Z"/><path class="cls-3" d="M956.48,176.23c0-14.49,9.72-25.51,24.78-25.51s24.87,11,24.87,25.51c0,14.26-9.8,25.27-24.87,25.27S956.48,190.49,956.48,176.23Zm46,0c0-12-7.77-22.11-21.22-22.11S960,164.25,960,176.23c0,11.75,7.86,21.87,21.22,21.87S1002.48,188,1002.48,176.23Z"/><path class="cls-3" d="M1017.55,200.37v-48.6h3.56v45.28h29.65v3.32Z"/><path class="cls-3" d="M1090,178h-27.29v19h31v3.32h-34.59v-48.6h34.59v3.32h-31V174.7H1090Z"/></g></svg>